<?xml version="1.0" encoding="UTF-8"?>
<svg xmlns="http://www.w3.org/2000/svg" width="16px" height="16px" viewBox="0 0 16 16">
    <path fill="currentColor" d="m 5 1.75 c -0.554688 0 -1 0.445312 -1 1 v 1 h -1 c -0.554688 0 -1 0.445312 -1 1 v 1 h -1 c -0.554688 0 -1 0.445312 -1 1 v 1.25 h 2 v -1.25 h 2 v 1.25 h 2 v -1.25 h 2 v 1.25 h 2 v -1.25 c 0 -0.554688 -0.445312 -1 -1 -1 h -1 v -1 c 0 -0.554688 -0.445312 -1 -1 -1 h -1 v -1 c 0 -0.554688 -0.445312 -1 -1 -1 z m -1 3 h 2 v 1 h -2 z m 0 0"/>
    <path fill="currentColor" d="m 12.25 4.625 c -0.933594 0.851562 -1.339844 1.941406 -1.09375 3.09375 c -0.796875 0.679688 -1.894531 1.03125 -3.28125 1.03125 h -6.875 c -0.554688 0 -1 0.445312 -1 1 v 0.5625 c 0 1.203125 0.519531 2.3125 1.484375 3.128906 c 0.960937 0.816406 2.375 1.308594 4.140625 1.308594 c 4.007812 0 6.757812 -2.0625 7.78125 -5.234375 c 1.148438 -0.046875 2.230469 -0.550781 2.5625 -1.65625 c 0.0625 -0.214844 0.003906 -0.449219 -0.15625 -0.609375 c -0.578125 -0.582031 -1.492188 -0.859375 -2.375 -0.738281 c -0.125 -0.550781 -0.40625 -1.042969 -0.78125 -1.394531 c -0.113281 -0.105469 -0.289062 -0.332032 -0.40625 -0.492188 z m 0 0"/>
</svg>
